# xmcd CD database file
#
# Track frame offsets:
#	150
#	20877
#	36392
#	53963
#	66402
#	74360
#	90743
#	105329
#	114234
#	123034
#	140952
#	153710
#
# Disc length: 2209 seconds
#
# Revision: 4
# Processed by: cddbd v1.4PL0 Copyright (c) Steve Scherf et al.
# Submitted via: CDex 1.40Beta6
#
DISCID=b0089f0c
DTITLE=Dover - Devil came to me
DYEAR=1997
DGENRE=Indie
TTITLE0=Devil came to me
TTITLE1=Loli Jackson
TTITLE2=Serenade
TTITLE3=Winter song
TTITLE4=La monja mellada
TTITLE5=Spectrum
TTITLE6=Rain of the times
TTITLE7=Pangea
TTITLE8=Push
TTITLE9=Judas
TTITLE10=Nightmare
TTITLE11=Sick girl
EXTD=
EXTT0=
EXTT1=
EXTT2=
EXTT3=
EXTT4=
EXTT5=
EXTT6=
EXTT7=
EXTT8=
EXTT9=
EXTT10=
EXTT11=
PLAYORDER=
